<?xml version="1.0" ?><svg enable-background="new 0 0 32 32" version="1.1" viewBox="0 0 32 32" xml:space="preserve" xmlns="http://www.w3.org/2000/svg" xmlns:xlink="http://www.w3.org/1999/xlink"><g id="Layer_1"/><g id="Capa_2"><g><path d="M11.474,1.504l0.545,0.061l0.061,0.546c0.018,0.158,0.151,0.278,0.31,0.278s0.293-0.12,0.31-0.278l0.061-0.546    l0.546-0.061c0.158-0.017,0.278-0.151,0.278-0.31s-0.12-0.293-0.278-0.31l-0.546-0.061L12.7,0.278C12.683,0.119,12.549,0,12.39,0    c-0.159,0-0.293,0.119-0.31,0.278l-0.061,0.545l-0.545,0.061c-0.159,0.017-0.278,0.151-0.278,0.31    C11.196,1.353,11.315,1.487,11.474,1.504z"/><path d="M26.271,4.909l0.855,0.095l0.095,0.855c0.018,0.158,0.151,0.278,0.31,0.278s0.293-0.12,0.31-0.278l0.095-0.855    l0.855-0.095c0.158-0.017,0.278-0.151,0.278-0.31c0-0.159-0.12-0.293-0.278-0.31l-0.855-0.095l-0.095-0.855    c-0.018-0.158-0.151-0.278-0.31-0.278s-0.293,0.12-0.31,0.278l-0.095,0.855l-0.855,0.095c-0.158,0.017-0.278,0.151-0.278,0.31    C25.993,4.758,26.113,4.891,26.271,4.909z"/><path d="M22.659,11.049c0.191,0.049,0.373,0.073,0.546,0.073c0.401,0,0.745-0.13,0.999-0.384c0.701-0.7,0.411-2.087-0.658-3.157    c-0.483-0.483-1.055-0.827-1.611-0.97c-0.633-0.161-1.182-0.052-1.545,0.311c-0.7,0.7-0.411,2.087,0.658,3.157    C21.53,10.562,22.103,10.907,22.659,11.049z M20.978,7.511c0.092-0.092,0.237-0.139,0.416-0.139c0.101,0,0.214,0.015,0.334,0.046    c0.408,0.104,0.856,0.379,1.229,0.752c0.755,0.755,0.97,1.668,0.658,1.98c-0.312,0.311-1.225,0.096-1.98-0.658    C20.881,8.736,20.666,7.823,20.978,7.511z"/><path d="M27.705,20.17c0.546-1.411,0.838-2.922,0.838-4.475c0-6.834-5.56-12.395-12.394-12.395c-1.677,0-3.299,0.33-4.796,0.958    C9.649,2.96,8.11,1.933,6.783,1.22C4.547,0.019,3.108-0.213,2.384,0.511c-1.383,1.384,1.017,5.31,3.36,8.457    c-1.299,2.005-1.991,4.325-1.991,6.728c0,6.834,5.56,12.394,12.395,12.394c2.526,0,4.944-0.757,7.013-2.181    c2.476,1.83,5.39,3.659,7.172,3.659c0.466,0,0.854-0.125,1.136-0.407c0.724-0.724,0.492-2.163-0.709-4.398    C30.043,23.428,29.011,21.881,27.705,20.17z M27.71,15.696c0,1.515-0.293,2.988-0.849,4.356c-0.002,0.005-0.008,0.007-0.01,0.013    c-0.306,0.69-0.613,1.356-0.998,1.918c-0.343,0.527-0.738,1.024-1.168,1.495l-0.996-0.733c-2.154-1.379-5.375-4.139-8.617-7.381    c-2.908-2.908-5.47-5.855-6.946-7.977c0.458-0.442,0.94-0.849,1.453-1.205c0.012-0.007,0.027-0.004,0.039-0.012    c0.587-0.402,1.214-0.752,1.863-1.04c0.014-0.006,0.022-0.021,0.035-0.028c1.441-0.63,3.008-0.967,4.633-0.967    C22.524,4.134,27.71,9.32,27.71,15.696z M26.181,22.953c0.773,1.202,0.834,1.642,0.841,1.741    c-0.126-0.002-0.559-0.072-1.642-0.748C25.666,23.627,25.932,23.296,26.181,22.953z M6.852,4.977    c0.155,0.007,0.632,0.11,1.801,0.863C8.308,6.104,7.976,6.386,7.656,6.688C6.963,5.594,6.861,5.128,6.852,4.977z M4.586,15.696    c0-2.143,0.591-4.213,1.701-6.025c1.884,2.45,4.214,5.089,6.801,7.677c2.664,2.664,5.403,5.085,7.93,7.007l1.43,1.028    c-1.876,1.224-4.04,1.875-6.3,1.875C9.773,27.258,4.586,22.071,4.586,15.696z M30.88,28.572c-0.447,0.447-2.553,0.19-7.608-3.615    l-0.195-0.148c-0.003-0.002-0.006-0.005-0.009-0.007l-1.555-1.117c-2.488-1.892-5.198-4.287-7.836-6.926    c-2.721-2.722-5.173-5.506-7.089-8.052C2.783,3.654,2.525,1.548,2.973,1.1C3.073,1,3.25,0.939,3.514,0.939    c0.554,0,1.487,0.269,2.874,1.014c1.184,0.636,2.6,1.567,4.122,2.709C10.122,4.861,9.744,5.079,9.377,5.32    C7.664,4.171,6.719,3.888,6.24,4.367C5.761,4.845,6.046,5.783,7.182,7.485c0.021,0.055,0.051,0.106,0.096,0.15    c0.003,0.003,0.006,0.003,0.009,0.006c1.497,2.205,4.113,5.227,7.197,8.312c3.282,3.282,6.555,6.083,8.732,7.477l1.032,0.769    l0.16,0.109c1.76,1.187,2.718,1.485,3.205,0.999c0.48-0.48,0.206-1.409-0.919-3.088c0.055-0.087,0.096-0.187,0.148-0.277    c0.172-0.294,0.333-0.593,0.479-0.899c0-0.001,0.001-0.001,0.001-0.002c1.139,1.519,2.068,2.933,2.704,4.117    C31.127,27.204,31.189,28.263,30.88,28.572z"/><path d="M2.614,9.194c-0.122-0.122-0.32-0.122-0.441,0l-0.41,0.41c-0.122,0.122-0.122,0.319,0,0.441l0.41,0.41    c0.061,0.061,0.141,0.091,0.221,0.091c0.08,0,0.16-0.03,0.221-0.091l0.41-0.41c0.059-0.059,0.091-0.138,0.091-0.221    c0-0.083-0.033-0.162-0.091-0.221L2.614,9.194z"/><path d="M32.09,16.744l-0.41-0.41c-0.122-0.122-0.319-0.122-0.441,0l-0.41,0.41c-0.058,0.059-0.091,0.138-0.091,0.221    c0,0.083,0.033,0.162,0.091,0.221l0.41,0.41c0.059,0.059,0.138,0.091,0.221,0.091s0.162-0.033,0.221-0.091l0.41-0.41    C32.212,17.063,32.212,16.866,32.09,16.744z"/><path d="M22.791,1.943c0.061,0.061,0.141,0.091,0.221,0.091s0.16-0.031,0.221-0.091l0.41-0.41c0.122-0.122,0.122-0.319,0-0.441    l-0.41-0.41c-0.122-0.122-0.319-0.122-0.441,0l-0.41,0.41c-0.122,0.122-0.122,0.319,0,0.441L22.791,1.943z"/><path d="M30.079,9.461c0.061,0.061,0.141,0.091,0.221,0.091s0.16-0.031,0.221-0.091l0.41-0.41c0.122-0.122,0.122-0.319,0-0.441    L30.52,8.2c-0.122-0.122-0.319-0.122-0.441,0l-0.41,0.41c-0.122,0.122-0.122,0.319,0,0.441L30.079,9.461z"/><path d="M19.55,29.942l-0.567-0.063l-0.063-0.567c-0.017-0.159-0.151-0.278-0.31-0.278c-0.159,0-0.293,0.12-0.31,0.278    l-0.063,0.567l-0.567,0.063c-0.159,0.018-0.278,0.151-0.278,0.31c0,0.159,0.12,0.293,0.278,0.31l0.567,0.063l0.063,0.567    c0.017,0.159,0.151,0.278,0.31,0.278c0.159,0,0.293-0.119,0.31-0.278l0.063-0.567l0.567-0.063c0.159-0.017,0.278-0.151,0.278-0.31    C19.828,30.093,19.708,29.96,19.55,29.942z"/><path d="M5.606,27.971l-0.651-0.072l-0.072-0.651c-0.017-0.158-0.151-0.278-0.31-0.278c-0.159,0-0.293,0.12-0.31,0.278    l-0.072,0.65L3.54,27.971c-0.158,0.017-0.278,0.151-0.278,0.31c0,0.159,0.12,0.293,0.278,0.31l0.65,0.072l0.072,0.65    c0.017,0.158,0.151,0.278,0.31,0.278c0.159,0,0.293-0.119,0.31-0.278l0.072-0.651l0.65-0.072c0.158-0.017,0.278-0.151,0.278-0.31    C5.883,28.123,5.764,27.989,5.606,27.971z"/><path d="M25.212,29.059c-0.122-0.122-0.32-0.122-0.441,0l-0.41,0.41c-0.122,0.122-0.122,0.319,0,0.441l0.41,0.41    c0.061,0.061,0.141,0.091,0.221,0.091c0.08,0,0.16-0.03,0.221-0.091l0.41-0.41c0.059-0.059,0.091-0.138,0.091-0.221    c0-0.083-0.033-0.162-0.091-0.221L25.212,29.059z"/><path d="M1.575,17.676c-0.117-0.117-0.324-0.117-0.441,0l-0.41,0.41c-0.122,0.122-0.122,0.319,0,0.441l0.41,0.41    c0.061,0.061,0.141,0.091,0.221,0.091c0.08,0,0.16-0.031,0.221-0.091l0.41-0.41c0.122-0.122,0.122-0.319,0-0.441L1.575,17.676z"/><path d="M9.312,30.937c-0.059-0.059-0.138-0.091-0.221-0.091c-0.083,0-0.162,0.033-0.221,0.091l-0.41,0.41    c-0.059,0.058-0.091,0.138-0.091,0.221c0,0.083,0.033,0.162,0.091,0.221l0.41,0.41c0.061,0.061,0.141,0.091,0.221,0.091    c0.08,0,0.16-0.03,0.221-0.091l0.41-0.41c0.122-0.122,0.122-0.319,0-0.441L9.312,30.937z"/><path d="M0.468,22.426c-0.122-0.122-0.32-0.122-0.441,0l-0.41,0.41c-0.122,0.122-0.122,0.319,0,0.441l0.41,0.41    c0.061,0.061,0.141,0.091,0.221,0.091c0.08,0,0.16-0.031,0.221-0.091l0.41-0.41c0.059-0.058,0.091-0.138,0.091-0.221    c0-0.083-0.033-0.162-0.091-0.221L0.468,22.426z"/></g></g></svg>